<?xml version="1.0" encoding="utf-8"?>
<svg x="0px" y="0px" viewBox="0 0 100 100" xmlns="http://www.w3.org/2000/svg">
  <path d="M 59.895 42.143 L 52.865 36.872 C 51.891 36.14 50.509 36.339 49.778 37.312 L 41.205 48.744 L 51.762 56.661 L 60.335 45.229 C 61.067 44.257 60.869 42.874 59.895 42.143 Z" style="fill: rgb(38, 166, 154);"/>
  <path d="M 12.836 86.568 C 12.105 87.542 12.304 88.924 13.276 89.655 L 20.306 94.926 C 21.279 95.657 22.662 95.458 23.393 94.485 L 49.385 59.827 L 38.828 51.909 L 12.836 86.568 Z" style="fill: rgb(38, 166, 154);"/>
  <polygon points="17.06 46.888 22.612 41.476 14.941 40.363 11.513 33.412 8.082 40.363 0.411 41.476 5.963 46.888 4.654 54.528 11.513 50.918 18.375 54.528" style="fill: rgb(233, 30, 99);" transform="matrix(-0.374607, -0.927184, 0.927184, -0.374607, -24.944491, 71.114733)"/>
  <polygon points="26.854 23.295 33.715 19.687 40.577 23.295 39.266 15.656 44.813 10.243 37.143 9.129 33.715 2.181 30.283 9.129 22.612 10.243 28.164 15.656" style="fill: rgb(233, 30, 99);" transform="matrix(0.992546, 0.121869, -0.121869, 0.992546, 1.803659, -4.013573)"/>
  <polygon points="66.405 77.911 62.978 70.955 59.546 77.911 51.876 79.022 57.427 84.43 56.118 92.067 62.978 88.466 69.84 92.067 68.53 84.43 74.076 79.022" style="fill: rgb(233, 30, 99);" transform="matrix(0.573576, 0.819152, -0.819152, 0.573576, 93.624363, -16.828705)"/>
  <polygon points="99.629 49.419 91.958 48.305 88.528 41.352 85.096 48.305 77.427 49.419 82.974 54.827 81.665 62.466 88.528 58.861 95.384 62.466 94.077 54.827" style="fill: rgb(233, 30, 99);" transform="matrix(0.927184, 0.374607, -0.374607, 0.927184, 25.891722, -29.383358)"/>
  <polygon points="65.895 27.583 72.758 23.978 79.619 27.583 78.309 19.944 83.859 14.534 76.189 13.422 72.758 6.47 69.329 13.422 61.66 14.534 67.211 19.944" style="fill: rgb(233, 30, 99);" transform="matrix(0.97437, -0.224951, 0.224951, 0.97437, -1.965308, 16.803712)"/>
</svg>