<?xml version="1.0" encoding="utf-8"?>
<!-- Generator: Adobe Illustrator 19.1.0, SVG Export Plug-In . SVG Version: 6.00 Build 0)  -->
<svg version="1.1"
	 id="svg7404" xmlns:svg="http://www.w3.org/2000/svg" xmlns:rdf="http://www.w3.org/1999/02/22-rdf-syntax-ns#" xmlns:cc="http://creativecommons.org/ns#" xmlns:dc="http://purl.org/dc/elements/1.1/"
	 xmlns="http://www.w3.org/2000/svg" xmlns:xlink="http://www.w3.org/1999/xlink" x="0px" y="0px" viewBox="232 -592.3 824.9 1155"
	 style="enable-background:new 232 -592.3 824.9 1155;" xml:space="preserve">
<style type="text/css">
	.st0{fill:#EDF9F7;}
	.st1{fill:#7BCBBF;}
	.st2{fill:#9BD8D0;}
	.st3{fill:#CBE9E4;}
	.st4{fill:#6EC3BB;}
	.st5{fill:#FFFFFF;}
	.st6{fill:#EED7B2;}
	.st7{fill:#DAC4BF;}
	.st8{fill:#CCDBB9;}
	.st9{fill:#DBEFBE;}
	.st10{fill:#D4E6BC;}
	.st11{fill:#F9FBF5;}
	.st12{fill:#D6C2BE;}
	.st13{fill:#E0E4DD;}
	.st14{fill:#B3D3C8;}
	.st15{fill:#9FCABF;}
	.st16{fill:#D3DBD9;}
	.st17{fill:#A6C9C4;}
	.st18{fill:#BCD1CD;}
	.st19{fill:#92C0BB;}
	.st20{fill:#DFEAE9;}
</style>
<g>
	<path class="st0" d="M544.6-229L544.6-229L544.6-229 M501.7-241.2L501.7-241.2l-19.1,22.8l31.1,13c0.1-1.1,0.4-2.1,1.1-2.9
		c1-1.2,2.4-1.8,4-1.8c1.4,0,2.9,0.5,4.1,1.5c0.9,0.7,1.5,1.6,1.9,2.6l19.4-23.3L501.7-241.2"/>
	<polyline class="st1" points="474.8,-209.1 447.4,-176.2 466.8,-136.4 489.6,-163.7 465.5,-197.8 474.9,-209.1 474.8,-209.1 	"/>
	<path class="st2" d="M544.5-229.4l-0.2,0.2l-19.4,23.3c0.7,1.8,0.5,3.9-0.7,5.4c-0.3,0.4-0.7,0.7-1.1,0.9l21.1,32.6l19.3-23.1
		L544.6-229l0,0L544.5-229.4"/>
	<polyline class="st3" points="489.9,-163.8 489.7,-163.6 489.6,-163.7 466.8,-136.4 466.7,-136.2 508.6,-124.3 508.6,-124.3 
		527,-146.3 489.9,-163.8 	"/>
	<path class="st2" d="M482.6-218.4l-7.8,9.3l-9.4,11.3l24.2,34.1l0.1,0.1l0.2-0.2l-0.2-0.1l29.3-35c-1-0.2-2-0.7-2.9-1.4
		c-1.6-1.3-2.4-3.3-2.3-5.1L482.6-218.4L482.6-218.4"/>
	<path class="st4" d="M523.1-199.6c-0.8,0.6-1.9,0.8-2.9,0.8c-0.4,0-0.8,0-1.2-0.1l-29.3,35l0.2,0.1l37.1,17.5l8.2-9.7l9.1-10.9
		L523.1-199.6"/>
	<path class="st5" d="M518.9-210c-1.5,0-3,0.6-4,1.8c-0.7,0.8-1.1,1.9-1.1,2.9c-0.1,1.8,0.7,3.7,2.3,5.1c0.9,0.7,1.9,1.2,2.9,1.4
		c0.4,0.1,0.8,0.1,1.2,0.1c1,0,2.1-0.3,2.9-0.8c0.4-0.3,0.7-0.6,1.1-0.9c1.2-1.5,1.4-3.5,0.7-5.4c-0.4-1-1-1.9-1.9-2.6
		C521.7-209.5,520.3-210,518.9-210"/>
	<path class="st6" d="M874.4,91.9c-2,9.3-4.7,18-7.1,25.7l133.5,111.7l-2.3,2.7l0,0l13.2-15.9L874.4,91.9 M577.3-176.6l2.2,53.4
		L624-86.1c4.1-1.9,9-2.9,14.2-2.9c3.2,0,6.5,0.4,9.6,1.2c13,3.4,19.8,12.9,15,21.2c-0.3,0.5-0.6,1-1,1.5c-0.7,2.4-1.5,5.5-2.1,8.9
		L839.8,94.6c0-0.9,0-1.9-0.1-2.8l0,0c0,0,0,0,0,0c0.3-13.5,2-27.5-1.3-32.3L577.3-176.6"/>
	<path class="st7" d="M867.3,117.6c-2.8,8.9-5.1,16.4-5.1,21.9c-0.1,3.7,0.4,6.8,1.2,9.5L987.6,245l10.9-13.1l2.3-2.7L867.3,117.6
		 M659.7-56.2c-3,16.4-2.7,42.8,21.9,63.4c2.2,1.8,4.6,3.4,7,4.5l67.1,52.1l0,0c-0.5,0.2-1,0.4-1.5,0.7l87.3,67.6
		c-0.9-10.2-1.3-22.6-1.7-37.4L659.7-56.2 M579.6-123.3l0.1,2.5l-55.1,7.4L614-44.1c-0.6-5.7-0.7-10.8-0.7-15
		c0-8.5,0.7-13.6,0.7-13.6s0-0.1,0.1-0.3c-0.1-2,0.4-4,1.5-6c1.7-3,4.7-5.4,8.4-7.1L579.6-123.3"/>
	<path class="st8" d="M839.8,91.7L839.8,91.7c0,1,0,1.9,0.1,2.8c0.4,14.8,0.8,27.2,1.7,37.4c1.9,21.5,6,33.3,17.1,36.7
		c3.4,1.1,6.4,1.5,9,1.5c4.4,0,7.6-1.2,9.9-2.6c-2.3,1.4-5.5,2.6-9.9,2.6c-2.6,0-5.6-0.4-9-1.5C841.9,163.6,841,139.4,839.8,91.7
		 M806.6-3.9c-10.8,0-21.9,2-32.8,4.7l23.9,21.6c1,0,2.1-0.1,3.1-0.1c21.4,0,38,9.1,49.3,22.5c12.8,15.3,3.1,56.1,3.9,79
		c0.9,22.4-5.4,36.8,27.2,40.6c0.4-0.5,0.6-0.8,0.6-0.8s-14.1-0.8-18.4-14.8c-0.8-2.7-1.3-5.8-1.2-9.5c0.1-5.4,2.4-13,5.1-21.9
		c2.4-7.7,5.1-16.4,7.1-25.7c5.4-25.7,5-55.8-24.9-80.8C836.3,0,821.7-3.9,806.6-3.9 M613.2-59.1c0,4.2,0.2,9.3,0.7,15
		c2.5,25.9,12.6,64.3,47.8,93.6c20.4,17,39.5,23,56.7,23c13.2,0,25.2-3.5,35.8-8.1c0.5-0.2,1-0.4,1.5-0.7l0,0
		c-10.9,4.9-23.5,8.7-37.2,8.7c-17.2,0-36.3-5.9-56.7-23C618.9,13.7,613.2-35.6,613.2-59.1 M661.9-65.1c-4.1,5.4-12.5,8.6-21.6,8.6
		c-1.7,0-3.4-0.1-5.1-0.3c-0.8,25.1,5.1,61.8,29.9,82.4c10.6,8.8,25.2,11.8,40.9,11.8c4.8,0,9.7-0.3,14.7-0.8l35,27.1l-67.1-52.1
		c-2.3-1.1-4.7-2.6-7-4.5c-24.6-20.5-24.9-46.9-21.9-63.4C660.3-59.7,661.1-62.7,661.9-65.1"/>
	<path class="st9" d="M800.8,22.4c-1,0-2.1,0-3.1,0.1c0,0-0.1,0-0.1,0l40,36c0.3,0.3,0.6,0.6,0.8,0.9c3.3,4.9,1.6,18.9,1.3,32.3l0,0
		c1.2,47.7,2.2,71.8,18.9,77c3.4,1.1,6.4,1.5,9,1.5c4.4,0,7.6-1.2,9.9-2.6c1.8-1.1,3-2.3,3.7-3.1c0,0,0,0,0,0
		c-32.6-3.8-26.3-18.2-27.2-40.6c-0.8-22.9,8.9-63.7-3.9-79C838.8,31.5,822.2,22.4,800.8,22.4 M614.1-73c-0.1,0.2-0.1,0.3-0.1,0.3
		s-0.7,5.1-0.7,13.6c0,23.6,5.7,72.8,48.5,108.6c20.4,17,39.5,23,56.7,23c13.8,0,26.3-3.8,37.2-8.7l0,0l-35-27.1
		c-4.9,0.5-9.9,0.8-14.7,0.8c-15.7,0-30.3-3.1-40.9-11.8c-24.8-20.7-30.8-57.4-29.9-82.4c-1.5-0.2-3-0.5-4.5-0.9
		C620.6-60.3,614.3-66.5,614.1-73"/>
	<path class="st10" d="M638.2-59.6c-2,0-4.1-0.7-5.9-2.2c-3.7-3.1-4.4-8.2-1.7-11.4c1.4-1.7,3.5-2.5,5.7-2.5c2,0,4.1,0.7,5.9,2.2
		c3.7,3.1,4.4,8.2,1.7,11.4C642.5-60.5,640.4-59.6,638.2-59.6 M638.2-89c-5.2,0-10.1,1-14.2,2.9c-3.7,1.7-6.7,4.2-8.4,7.1
		c-1.1,2-1.6,4-1.5,6c0.3,6.5,6.6,12.7,16.5,15.3c1.5,0.4,3,0.7,4.5,0.9c1.7,0.2,3.4,0.3,5.1,0.3c9.1,0,17.5-3.2,21.6-8.6
		c0.4-0.5,0.7-1,1-1.5c4.7-8.3-2-17.8-15-21.2C644.6-88.6,641.4-89,638.2-89"/>
	<path class="st11" d="M636.3-75.8c-2.2,0-4.3,0.9-5.7,2.5c-2.7,3.3-2,8.4,1.7,11.4c1.8,1.5,3.9,2.2,5.9,2.2c2.2,0,4.3-0.9,5.7-2.5
		c2.7-3.3,2-8.4-1.7-11.4C640.5-75.1,638.4-75.8,636.3-75.8"/>
	<polyline class="st12" points="577.3,-178.5 549.7,-145.7 522.2,-113.1 524.5,-113.4 579.7,-120.8 579.6,-123.3 577.3,-176.6 
		577.3,-178.5 	"/>
	<polyline class="st13" points="563.6,-190 563.5,-190 564.1,-188.9 537.9,-157.6 550.6,-147 577.1,-178.7 563.6,-190 	"/>
	<polyline class="st14" points="563.5,-190 544.2,-166.9 544.4,-166.7 537.2,-158.2 537.9,-157.6 564.1,-188.9 563.5,-190 	"/>
	<polyline class="st15" points="544.2,-166.9 535.1,-156 537,-158.3 537.2,-158.2 544.4,-166.7 544.2,-166.9 	"/>
	<polyline class="st16" points="537.9,-157.6 536.7,-156.1 536.7,-156.1 509.7,-124 508.6,-124.3 522.1,-113 550.6,-147 
		537.9,-157.6 	"/>
	<polyline class="st17" points="537.2,-158.2 536.6,-157.4 537.3,-156.8 536.7,-156.1 536.7,-156.1 537.9,-157.6 537.2,-158.2 	"/>
	<polyline class="st18" points="536.6,-157.4 527.2,-146.2 527,-146.3 508.6,-124.3 508.6,-124.3 509.7,-124 536.7,-156.1 
		537.3,-156.8 536.6,-157.4 	"/>
	<polyline class="st19" points="537,-158.3 535.1,-156 527,-146.3 527.2,-146.2 536.6,-157.4 537.2,-158.2 537,-158.3 	"/>
	<polygon class="st20" points="362.8,-106.5 366.8,-137.1 394.1,-151.2 366.3,-164.3 361.4,-194.7 340.3,-172.4 309.9,-177.1 
		324.6,-150 310.7,-122.6 341,-128.3 	"/>
	<polygon class="st20" points="394.7,-386.8 409.4,-403.2 431.2,-400.3 420.2,-419.4 429.7,-439.2 408.2,-434.6 392.3,-449.7 
		390,-427.9 370.7,-417.4 390.7,-408.5 	"/>
	<polygon class="st20" points="457,20.4 461.6,-14.7 493.1,-30.9 461.1,-46.1 455.4,-81.1 431,-55.3 396,-60.7 413,-29.6 397,2 
		431.8,-4.5 	"/>
	<polygon class="st20" points="634.6,-418.3 636.7,-434.1 650.9,-441.4 636.5,-448.2 633.9,-463.9 623,-452.4 607.2,-454.8 
		614.9,-440.8 607.7,-426.6 623.3,-429.5 	"/>
	<polygon class="st20" points="803.5,-10.6 800.3,-33.9 817.8,-49.6 794.6,-53.9 785,-75.3 773.8,-54.7 750.5,-52.1 766.7,-35.1 
		761.9,-12.1 783.1,-22.3 	"/>
	<polygon class="st20" points="608.2,41.7 610.5,23.5 626.9,15.1 610.3,7.2 607.4,-10.9 594.7,2.5 576.6,-0.4 585.4,15.8 
		577.1,32.1 595.1,28.8 	"/>
	<polygon class="st20" points="267.8,88.3 269.8,72.5 284,65.2 269.6,58.4 267,42.6 256.1,54.2 240.4,51.8 248,65.8 240.8,80 
		256.5,77.1 	"/>
	<polygon class="st20" points="489.7,348 497.5,334.2 513.4,332.8 502.6,321 506.2,305.5 491.7,312.1 478,303.9 479.8,319.7 
		467.8,330.2 483.4,333.4 	"/>
	<polygon class="st20" points="989.4,-441.9 997.3,-455.7 1013.1,-457.1 1002.4,-468.9 1005.9,-484.4 991.4,-477.8 977.8,-486 
		979.6,-470.2 967.5,-459.7 983.2,-456.5 	"/>
	<polygon class="st20" points="934.4,137.9 939.1,126.4 951.4,123.8 941.9,115.7 943.1,103.3 932.5,109.8 921.1,104.8 924,116.9 
		915.7,126.2 928.2,127.1 	"/>
	<polygon class="st20" points="326.5,108.6 324.9,96.3 334.1,87.9 321.8,85.6 316.8,74.3 310.8,85.2 298.5,86.6 307.1,95.6 
		304.5,107.8 315.7,102.4 	"/>
	<polygon class="st20" points="530.6,104.7 532,93.7 541.9,88.7 531.9,83.9 530.1,73 522.5,81 511.6,79.3 516.9,89 511.9,98.9 
		522.7,96.9 	"/>
	<polygon class="st20" points="742.1,-272 745.1,-282.7 755.5,-286.3 746.3,-292.4 746.1,-303.5 737.4,-296.6 726.8,-299.8 
		730.7,-289.5 724.3,-280.4 735.4,-280.9 	"/>
	<polygon class="st20" points="939.7,-208.2 950.1,-211.9 959.1,-205.5 958.7,-216.6 967.5,-223.3 956.9,-226.3 953.4,-236.7 
		947.2,-227.6 936.1,-227.4 943,-218.7 	"/>
	<polygon class="st20" points="825.7,-570.5 829.8,-574.5 835.4,-573.5 832.8,-578.6 835.5,-583.7 829.9,-582.8 825.9,-587 
		825,-581.3 819.8,-578.8 824.9,-576.2 	"/>
	<polygon class="st20" points="862.9,475.8 867,471.8 872.6,472.8 870,467.7 872.7,462.6 867.1,463.5 863.1,459.3 862.2,465 
		857,467.5 862.1,470.1 	"/>
	<polygon class="st20" points="503.3,-554 507.4,-558 513.1,-557 510.5,-562.1 513.2,-567.2 507.5,-566.3 503.6,-570.5 
		502.7,-564.8 497.4,-562.3 502.6,-559.7 	"/>
	<polygon class="st20" points="706.5,302 710.6,297.9 716.3,299 713.6,293.8 716.4,288.7 710.7,289.6 706.7,285.5 705.8,291.1 
		700.6,293.6 705.7,296.2 	"/>
	<polygon class="st20" points="328,488.5 333.8,487.9 337.6,492.2 338.7,486.5 344,484.2 339,481.4 338.4,475.7 334.2,479.6 
		328.6,478.3 331,483.6 	"/>
</g>
</svg>
